<mxfile host="Electron" agent="Mozilla/5.0 (Windows NT 10.0; Win64; x64) AppleWebKit/537.36 (KHTML, like Gecko) draw.io/26.0.16 Chrome/132.0.6834.196 Electron/34.2.0 Safari/537.36" version="26.0.16">
  <diagram id="3CqUWly9VH_zf_O0FjLb" name="Page-1">
    <mxGraphModel dx="2537" dy="2084" grid="1" gridSize="10" guides="1" tooltips="1" connect="1" arrows="1" fold="1" page="1" pageScale="1" pageWidth="850" pageHeight="1100" math="0" shadow="0">
      <root>
        <mxCell id="0" />
        <mxCell id="1" parent="0" />
        <mxCell id="rW97gdCueN_kluTE39mw-73" value="&lt;font style=&quot;font-size: 15px;&quot;&gt;&lt;b&gt;&amp;nbsp; Legend&lt;/b&gt;&lt;/font&gt;" style="rounded=0;whiteSpace=wrap;html=1;align=left;verticalAlign=top;" parent="1" vertex="1">
          <mxGeometry x="-830" y="40" width="210" height="280" as="geometry" />
        </mxCell>
        <mxCell id="rW97gdCueN_kluTE39mw-3" value="" style="group;" parent="1" vertex="1" connectable="0">
          <mxGeometry x="80" y="-30" width="130" height="70" as="geometry" />
        </mxCell>
        <mxCell id="rW97gdCueN_kluTE39mw-1" value="Magic Society" style="rounded=1;whiteSpace=wrap;html=1;fillColor=#dae8fc;strokeColor=#6c8ebf;textShadow=1;fontColor=light-dark(#4D4D4D, #000000);" parent="rW97gdCueN_kluTE39mw-3" vertex="1">
          <mxGeometry y="10" width="120" height="60" as="geometry" />
        </mxCell>
        <mxCell id="rW97gdCueN_kluTE39mw-2" value="1" style="ellipse;whiteSpace=wrap;html=1;aspect=fixed;fillColor=#fff2cc;strokeColor=#d6b656;fontColor=#000000;" parent="rW97gdCueN_kluTE39mw-3" vertex="1">
          <mxGeometry x="110" width="20" height="20" as="geometry" />
        </mxCell>
        <mxCell id="rW97gdCueN_kluTE39mw-4" value="" style="group;" parent="1" vertex="1" connectable="0">
          <mxGeometry x="290" y="100" width="130" height="70" as="geometry" />
        </mxCell>
        <mxCell id="rW97gdCueN_kluTE39mw-5" value="Mana Lanterns" style="rounded=1;whiteSpace=wrap;html=1;fillColor=#dae8fc;strokeColor=#6c8ebf;textShadow=1;fontColor=light-dark(#4D4D4D, #000000);" parent="rW97gdCueN_kluTE39mw-4" vertex="1">
          <mxGeometry y="10" width="120" height="60" as="geometry" />
        </mxCell>
        <mxCell id="rW97gdCueN_kluTE39mw-6" value="1" style="ellipse;whiteSpace=wrap;html=1;aspect=fixed;fillColor=#fff2cc;strokeColor=#d6b656;fontColor=#000000;" parent="rW97gdCueN_kluTE39mw-4" vertex="1">
          <mxGeometry x="110" width="20" height="20" as="geometry" />
        </mxCell>
        <mxCell id="rW97gdCueN_kluTE39mw-7" value="" style="group;" parent="1" vertex="1" connectable="0">
          <mxGeometry x="80" y="260" width="130" height="70" as="geometry" />
        </mxCell>
        <mxCell id="rW97gdCueN_kluTE39mw-8" value="Formalized Magic" style="rounded=1;whiteSpace=wrap;html=1;fillColor=#dae8fc;strokeColor=#6c8ebf;textShadow=1;fontColor=light-dark(#4D4D4D, #000000);" parent="rW97gdCueN_kluTE39mw-7" vertex="1">
          <mxGeometry y="10" width="120" height="60" as="geometry" />
        </mxCell>
        <mxCell id="rW97gdCueN_kluTE39mw-9" value="2" style="ellipse;whiteSpace=wrap;html=1;aspect=fixed;fillColor=#fff2cc;strokeColor=#d6b656;fontColor=#000000;" parent="rW97gdCueN_kluTE39mw-7" vertex="1">
          <mxGeometry x="110" width="20" height="20" as="geometry" />
        </mxCell>
        <mxCell id="rW97gdCueN_kluTE39mw-31" style="edgeStyle=orthogonalEdgeStyle;rounded=0;orthogonalLoop=1;jettySize=auto;html=1;entryX=0;entryY=0.5;entryDx=0;entryDy=0;" parent="1" source="rW97gdCueN_kluTE39mw-1" target="rW97gdCueN_kluTE39mw-5" edge="1">
          <mxGeometry relative="1" as="geometry">
            <Array as="points">
              <mxPoint x="140" y="140" />
            </Array>
          </mxGeometry>
        </mxCell>
        <mxCell id="rW97gdCueN_kluTE39mw-32" style="edgeStyle=orthogonalEdgeStyle;rounded=0;orthogonalLoop=1;jettySize=auto;html=1;exitX=0.5;exitY=1;exitDx=0;exitDy=0;" parent="1" source="rW97gdCueN_kluTE39mw-1" target="rW97gdCueN_kluTE39mw-8" edge="1">
          <mxGeometry relative="1" as="geometry" />
        </mxCell>
        <mxCell id="rW97gdCueN_kluTE39mw-33" value="" style="group;" parent="1" vertex="1" connectable="0">
          <mxGeometry x="-130" y="100" width="130" height="70" as="geometry" />
        </mxCell>
        <mxCell id="rW97gdCueN_kluTE39mw-34" value="Academia" style="rounded=1;whiteSpace=wrap;html=1;fillColor=#e1d5e7;strokeColor=#9673a6;textShadow=1;fontColor=#000000;" parent="rW97gdCueN_kluTE39mw-33" vertex="1">
          <mxGeometry y="10" width="120" height="60" as="geometry" />
        </mxCell>
        <mxCell id="rW97gdCueN_kluTE39mw-35" value="1" style="ellipse;whiteSpace=wrap;html=1;aspect=fixed;fillColor=#fff2cc;strokeColor=#d6b656;fontColor=#000000;" parent="rW97gdCueN_kluTE39mw-33" vertex="1">
          <mxGeometry x="110" width="20" height="20" as="geometry" />
        </mxCell>
        <mxCell id="rW97gdCueN_kluTE39mw-36" style="edgeStyle=orthogonalEdgeStyle;rounded=0;orthogonalLoop=1;jettySize=auto;html=1;entryX=0;entryY=0.5;entryDx=0;entryDy=0;exitX=0.5;exitY=1;exitDx=0;exitDy=0;" parent="1" source="rW97gdCueN_kluTE39mw-34" target="rW97gdCueN_kluTE39mw-8" edge="1">
          <mxGeometry relative="1" as="geometry">
            <Array as="points">
              <mxPoint x="-70" y="300" />
            </Array>
          </mxGeometry>
        </mxCell>
        <mxCell id="rW97gdCueN_kluTE39mw-56" value="" style="endArrow=none;dashed=1;html=1;dashPattern=1 3;strokeWidth=2;rounded=0;" parent="1" edge="1">
          <mxGeometry width="50" height="50" relative="1" as="geometry">
            <mxPoint x="-530" y="220" as="sourcePoint" />
            <mxPoint x="920" y="220" as="targetPoint" />
          </mxGeometry>
        </mxCell>
        <mxCell id="rW97gdCueN_kluTE39mw-57" value="" style="endArrow=none;dashed=1;html=1;dashPattern=1 3;strokeWidth=2;rounded=0;" parent="1" edge="1">
          <mxGeometry width="50" height="50" relative="1" as="geometry">
            <mxPoint x="-530" y="790" as="sourcePoint" />
            <mxPoint x="920" y="790" as="targetPoint" />
          </mxGeometry>
        </mxCell>
        <mxCell id="rW97gdCueN_kluTE39mw-58" value="" style="endArrow=none;dashed=1;html=1;dashPattern=1 3;strokeWidth=2;rounded=0;" parent="1" edge="1">
          <mxGeometry width="50" height="50" relative="1" as="geometry">
            <mxPoint x="-530" y="1140" as="sourcePoint" />
            <mxPoint x="920" y="1140" as="targetPoint" />
          </mxGeometry>
        </mxCell>
        <mxCell id="rW97gdCueN_kluTE39mw-62" value="&lt;h1 style=&quot;margin-top: 0px;&quot;&gt;&lt;span style=&quot;background-color: transparent; color: light-dark(rgb(0, 0, 0), rgb(255, 255, 255));&quot;&gt;Era 2&lt;/span&gt;&lt;br&gt;&lt;/h1&gt;&lt;div&gt;&lt;span style=&quot;background-color: transparent;&quot;&gt;1836 - 1861&lt;br&gt;&lt;/span&gt;&lt;/div&gt;" style="text;html=1;whiteSpace=wrap;overflow=hidden;rounded=0;fontSize=16;" parent="1" vertex="1">
          <mxGeometry x="-530" y="440" width="110" height="100" as="geometry" />
        </mxCell>
        <mxCell id="rW97gdCueN_kluTE39mw-63" value="&lt;h1 style=&quot;margin-top: 0px;&quot;&gt;&lt;span style=&quot;background-color: transparent; color: light-dark(rgb(0, 0, 0), rgb(255, 255, 255));&quot;&gt;Era 1&lt;/span&gt;&lt;br&gt;&lt;/h1&gt;&lt;div&gt;&lt;span style=&quot;background-color: transparent;&quot;&gt;Before 1836&lt;br&gt;&lt;/span&gt;&lt;/div&gt;" style="text;html=1;whiteSpace=wrap;overflow=hidden;rounded=0;fontSize=16;" parent="1" vertex="1">
          <mxGeometry x="-530" y="50" width="110" height="100" as="geometry" />
        </mxCell>
        <mxCell id="rW97gdCueN_kluTE39mw-64" value="&lt;h1 style=&quot;margin-top: 0px;&quot;&gt;&lt;span style=&quot;background-color: transparent; color: light-dark(rgb(0, 0, 0), rgb(255, 255, 255));&quot;&gt;Era 3&lt;/span&gt;&lt;br&gt;&lt;/h1&gt;&lt;div&gt;&lt;span style=&quot;background-color: transparent;&quot;&gt;1862 - 1886&lt;br&gt;&lt;/span&gt;&lt;/div&gt;" style="text;html=1;whiteSpace=wrap;overflow=hidden;rounded=0;fontSize=16;" parent="1" vertex="1">
          <mxGeometry x="-530" y="920" width="110" height="100" as="geometry" />
        </mxCell>
        <mxCell id="rW97gdCueN_kluTE39mw-65" value="&lt;h1 style=&quot;margin-top: 0px;&quot;&gt;&lt;span style=&quot;background-color: transparent; color: light-dark(rgb(0, 0, 0), rgb(255, 255, 255));&quot;&gt;Era 4&lt;/span&gt;&lt;br&gt;&lt;/h1&gt;&lt;div&gt;&lt;span style=&quot;background-color: transparent;&quot;&gt;1887 - 1911&lt;br&gt;&lt;/span&gt;&lt;/div&gt;" style="text;html=1;whiteSpace=wrap;overflow=hidden;rounded=0;fontSize=16;" parent="1" vertex="1">
          <mxGeometry x="-530" y="1240" width="110" height="100" as="geometry" />
        </mxCell>
        <mxCell id="rW97gdCueN_kluTE39mw-70" value="" style="group;" parent="1" vertex="1" connectable="0">
          <mxGeometry x="-790" y="180" width="130" height="70" as="geometry" />
        </mxCell>
        <mxCell id="rW97gdCueN_kluTE39mw-71" value="&lt;font style=&quot;color: rgb(0, 0, 0);&quot;&gt;No&lt;span style=&quot;background-color: transparent;&quot;&gt;n Magic&lt;/span&gt;&lt;/font&gt;&lt;div&gt;&lt;font style=&quot;color: rgb(0, 0, 0);&quot;&gt;Technology Name&lt;/font&gt;&lt;/div&gt;" style="rounded=1;whiteSpace=wrap;html=1;fillColor=#e1d5e7;strokeColor=#9673a6;textShadow=1;fontColor=#000000;" parent="rW97gdCueN_kluTE39mw-70" vertex="1">
          <mxGeometry y="10" width="120" height="60" as="geometry" />
        </mxCell>
        <mxCell id="rW97gdCueN_kluTE39mw-72" value="E" style="ellipse;whiteSpace=wrap;html=1;aspect=fixed;fillColor=#fff2cc;strokeColor=#d6b656;fontColor=#000000;" parent="rW97gdCueN_kluTE39mw-70" vertex="1">
          <mxGeometry x="110" width="20" height="20" as="geometry" />
        </mxCell>
        <mxCell id="rW97gdCueN_kluTE39mw-74" value="&lt;font style=&quot;font-size: 14px;&quot;&gt;E = Era&lt;/font&gt;" style="text;html=1;align=center;verticalAlign=middle;whiteSpace=wrap;rounded=0;" parent="1" vertex="1">
          <mxGeometry x="-760" y="270" width="60" height="30" as="geometry" />
        </mxCell>
        <mxCell id="lMwz0Aa9FQAVzmSUozXD-9" value="" style="group" parent="1" vertex="1" connectable="0">
          <mxGeometry x="-790" y="90" width="130" height="70" as="geometry" />
        </mxCell>
        <mxCell id="rW97gdCueN_kluTE39mw-68" value="Magic&lt;br&gt;Technology Name" style="rounded=1;whiteSpace=wrap;html=1;fillColor=#dae8fc;strokeColor=#6c8ebf;textShadow=1;fontColor=light-dark(#4D4D4D, #000000);" parent="lMwz0Aa9FQAVzmSUozXD-9" vertex="1">
          <mxGeometry y="10" width="120" height="60" as="geometry" />
        </mxCell>
        <mxCell id="rW97gdCueN_kluTE39mw-69" value="E" style="ellipse;whiteSpace=wrap;html=1;aspect=fixed;fillColor=#fff2cc;strokeColor=#d6b656;fontColor=#000000;" parent="lMwz0Aa9FQAVzmSUozXD-9" vertex="1">
          <mxGeometry x="110" width="20" height="20" as="geometry" />
        </mxCell>
        <mxCell id="uOuGZcuHglNM6UshJqcs-11" value="" style="group;" parent="1" vertex="1" connectable="0">
          <mxGeometry x="80" y="400" width="130" height="70" as="geometry" />
        </mxCell>
        <mxCell id="uOuGZcuHglNM6UshJqcs-12" value="Healing Circles" style="rounded=1;whiteSpace=wrap;html=1;fillColor=#dae8fc;strokeColor=#6c8ebf;textShadow=1;fontColor=light-dark(#4D4D4D, #000000);" parent="uOuGZcuHglNM6UshJqcs-11" vertex="1">
          <mxGeometry y="10" width="120" height="60" as="geometry" />
        </mxCell>
        <mxCell id="uOuGZcuHglNM6UshJqcs-13" value="2" style="ellipse;whiteSpace=wrap;html=1;aspect=fixed;fillColor=#fff2cc;strokeColor=#d6b656;fontColor=#000000;" parent="uOuGZcuHglNM6UshJqcs-11" vertex="1">
          <mxGeometry x="110" width="20" height="20" as="geometry" />
        </mxCell>
        <mxCell id="KWsVvtLOvaTeI4t9c521-1" value="" style="group;" vertex="1" connectable="0" parent="1">
          <mxGeometry x="290" y="-30" width="130" height="70" as="geometry" />
        </mxCell>
        <mxCell id="KWsVvtLOvaTeI4t9c521-2" value="Urban Planning" style="rounded=1;whiteSpace=wrap;html=1;fillColor=#e1d5e7;strokeColor=#9673a6;textShadow=1;fontColor=#000000;" vertex="1" parent="KWsVvtLOvaTeI4t9c521-1">
          <mxGeometry y="10" width="120" height="60" as="geometry" />
        </mxCell>
        <mxCell id="KWsVvtLOvaTeI4t9c521-3" value="1" style="ellipse;whiteSpace=wrap;html=1;aspect=fixed;fillColor=#fff2cc;strokeColor=#d6b656;fontColor=#000000;" vertex="1" parent="KWsVvtLOvaTeI4t9c521-1">
          <mxGeometry x="110" width="20" height="20" as="geometry" />
        </mxCell>
        <mxCell id="KWsVvtLOvaTeI4t9c521-4" style="edgeStyle=orthogonalEdgeStyle;rounded=0;orthogonalLoop=1;jettySize=auto;html=1;entryX=0.5;entryY=0;entryDx=0;entryDy=0;" edge="1" parent="1" source="KWsVvtLOvaTeI4t9c521-2" target="rW97gdCueN_kluTE39mw-5">
          <mxGeometry relative="1" as="geometry">
            <Array as="points" />
          </mxGeometry>
        </mxCell>
        <mxCell id="KWsVvtLOvaTeI4t9c521-5" style="edgeStyle=orthogonalEdgeStyle;rounded=0;orthogonalLoop=1;jettySize=auto;html=1;entryX=0.5;entryY=0;entryDx=0;entryDy=0;" edge="1" parent="1" source="rW97gdCueN_kluTE39mw-8" target="uOuGZcuHglNM6UshJqcs-12">
          <mxGeometry relative="1" as="geometry" />
        </mxCell>
        <mxCell id="KWsVvtLOvaTeI4t9c521-6" value="" style="group;" vertex="1" connectable="0" parent="1">
          <mxGeometry x="-340" y="100" width="130" height="70" as="geometry" />
        </mxCell>
        <mxCell id="KWsVvtLOvaTeI4t9c521-7" value="Medical Degrees" style="rounded=1;whiteSpace=wrap;html=1;fillColor=#e1d5e7;strokeColor=#9673a6;textShadow=1;fontColor=#000000;" vertex="1" parent="KWsVvtLOvaTeI4t9c521-6">
          <mxGeometry y="10" width="120" height="60" as="geometry" />
        </mxCell>
        <mxCell id="KWsVvtLOvaTeI4t9c521-8" value="1" style="ellipse;whiteSpace=wrap;html=1;aspect=fixed;fillColor=#fff2cc;strokeColor=#d6b656;fontColor=#000000;" vertex="1" parent="KWsVvtLOvaTeI4t9c521-6">
          <mxGeometry x="110" width="20" height="20" as="geometry" />
        </mxCell>
        <mxCell id="KWsVvtLOvaTeI4t9c521-10" style="edgeStyle=orthogonalEdgeStyle;rounded=0;orthogonalLoop=1;jettySize=auto;html=1;entryX=0;entryY=0.5;entryDx=0;entryDy=0;" edge="1" parent="1" source="KWsVvtLOvaTeI4t9c521-7" target="uOuGZcuHglNM6UshJqcs-12">
          <mxGeometry relative="1" as="geometry">
            <Array as="points">
              <mxPoint x="-280" y="440" />
            </Array>
          </mxGeometry>
        </mxCell>
        <mxCell id="KWsVvtLOvaTeI4t9c521-16" value="" style="group;" vertex="1" connectable="0" parent="1">
          <mxGeometry x="290" y="400" width="130" height="70" as="geometry" />
        </mxCell>
        <mxCell id="KWsVvtLOvaTeI4t9c521-17" value="Monster Compendium" style="rounded=1;whiteSpace=wrap;html=1;fillColor=#dae8fc;strokeColor=#6c8ebf;textShadow=1;fontColor=light-dark(#4D4D4D, #000000);" vertex="1" parent="KWsVvtLOvaTeI4t9c521-16">
          <mxGeometry y="10" width="120" height="60" as="geometry" />
        </mxCell>
        <mxCell id="KWsVvtLOvaTeI4t9c521-18" value="2" style="ellipse;whiteSpace=wrap;html=1;aspect=fixed;fillColor=#fff2cc;strokeColor=#d6b656;fontColor=#000000;" vertex="1" parent="KWsVvtLOvaTeI4t9c521-16">
          <mxGeometry x="110" width="20" height="20" as="geometry" />
        </mxCell>
        <mxCell id="KWsVvtLOvaTeI4t9c521-19" value="" style="group;" vertex="1" connectable="0" parent="1">
          <mxGeometry x="540" y="840" width="130" height="70" as="geometry" />
        </mxCell>
        <mxCell id="KWsVvtLOvaTeI4t9c521-20" value="Magic &amp;amp; Science" style="rounded=1;whiteSpace=wrap;html=1;fillColor=#dae8fc;strokeColor=#6c8ebf;textShadow=1;fontColor=light-dark(#4D4D4D, #000000);" vertex="1" parent="KWsVvtLOvaTeI4t9c521-19">
          <mxGeometry y="10" width="120" height="60" as="geometry" />
        </mxCell>
        <mxCell id="KWsVvtLOvaTeI4t9c521-21" value="3" style="ellipse;whiteSpace=wrap;html=1;aspect=fixed;fillColor=#fff2cc;strokeColor=#d6b656;fontColor=#000000;" vertex="1" parent="KWsVvtLOvaTeI4t9c521-19">
          <mxGeometry x="110" width="20" height="20" as="geometry" />
        </mxCell>
        <mxCell id="KWsVvtLOvaTeI4t9c521-22" style="edgeStyle=orthogonalEdgeStyle;rounded=0;orthogonalLoop=1;jettySize=auto;html=1;entryX=0.5;entryY=0;entryDx=0;entryDy=0;" edge="1" parent="1" source="rW97gdCueN_kluTE39mw-8" target="KWsVvtLOvaTeI4t9c521-17">
          <mxGeometry relative="1" as="geometry">
            <mxPoint x="350" y="410" as="targetPoint" />
          </mxGeometry>
        </mxCell>
        <mxCell id="KWsVvtLOvaTeI4t9c521-23" style="edgeStyle=orthogonalEdgeStyle;rounded=0;orthogonalLoop=1;jettySize=auto;html=1;entryX=0.5;entryY=0;entryDx=0;entryDy=0;" edge="1" parent="1" source="rW97gdCueN_kluTE39mw-8" target="KWsVvtLOvaTeI4t9c521-20">
          <mxGeometry relative="1" as="geometry" />
        </mxCell>
      </root>
    </mxGraphModel>
  </diagram>
</mxfile>
